<svg width="18" height="18" viewBox="0 0 18 18" fill="none" xmlns="http://www.w3.org/2000/svg">
<circle cx="9.07178" cy="8.87823" r="3.66357" fill="#36106E"/>
<path fill-rule="evenodd" clip-rule="evenodd" d="M9.07172 0.289185C9.47349 0.289185 9.7992 0.614888 9.7992 1.01666L9.7992 3.755C9.7992 4.15678 9.47349 4.48248 9.07172 4.48248C8.66994 4.48248 8.34424 4.15678 8.34424 3.755L8.34424 1.01666C8.34424 0.614888 8.66994 0.289185 9.07172 0.289185Z" fill="#36106E"/>
<path fill-rule="evenodd" clip-rule="evenodd" d="M9.07172 13.2675C9.47349 13.2675 9.7992 13.5932 9.7992 13.995L9.7992 16.7333C9.7992 17.1351 9.47349 17.4608 9.07172 17.4608C8.66994 17.4608 8.34424 17.1351 8.34424 16.7333L8.34424 13.995C8.34424 13.5932 8.66994 13.2675 9.07172 13.2675Z" fill="#36106E"/>
<path fill-rule="evenodd" clip-rule="evenodd" d="M17.6577 8.87506C17.6577 9.27684 17.332 9.60254 16.9302 9.60254L14.1919 9.60254C13.7901 9.60254 13.4644 9.27684 13.4644 8.87506C13.4644 8.47329 13.7901 8.14758 14.1919 8.14758L16.9302 8.14758C17.332 8.14758 17.6577 8.47329 17.6577 8.87506Z" fill="#36106E"/>
<path fill-rule="evenodd" clip-rule="evenodd" d="M4.6792 8.875C4.6792 9.27678 4.3535 9.60248 3.95172 9.60248L1.21338 9.60248C0.811606 9.60248 0.485902 9.27678 0.485902 8.875C0.485902 8.47323 0.811606 8.14752 1.21338 8.14752L3.95172 8.14752C4.3535 8.14752 4.6792 8.47323 4.6792 8.875Z" fill="#36106E"/>
<path fill-rule="evenodd" clip-rule="evenodd" d="M15.1433 14.9462C14.8592 15.2303 14.3986 15.2303 14.1145 14.9462L12.1782 13.0099C11.8941 12.7258 11.8941 12.2652 12.1782 11.9811C12.4623 11.697 12.9229 11.697 13.207 11.9811L15.1433 13.9174C15.4274 14.2015 15.4274 14.6621 15.1433 14.9462Z" fill="#36106E"/>
<path fill-rule="evenodd" clip-rule="evenodd" d="M5.96606 5.76892C5.68196 6.05302 5.22135 6.05302 4.93725 5.76892L3.00095 3.83263C2.71685 3.54853 2.71686 3.08791 3.00095 2.80381C3.28505 2.51972 3.74567 2.51972 4.02977 2.80381L5.96606 4.74011C6.25016 5.02421 6.25016 5.48482 5.96606 5.76892Z" fill="#36106E"/>
<path fill-rule="evenodd" clip-rule="evenodd" d="M3.00073 14.946C2.71663 14.6619 2.71663 14.2013 3.00073 13.9172L4.93703 11.9809C5.22113 11.6968 5.68174 11.6968 5.96584 11.9809C6.24994 12.265 6.24994 12.7256 5.96584 13.0097L4.02954 14.946C3.74544 15.2301 3.28483 15.2301 3.00073 14.946Z" fill="#36106E"/>
<path fill-rule="evenodd" clip-rule="evenodd" d="M12.178 5.7691C11.8939 5.485 11.8939 5.02439 12.178 4.74029L14.1143 2.80399C14.3984 2.51989 14.859 2.51989 15.1431 2.80399C15.4272 3.08809 15.4272 3.54871 15.1431 3.83281L13.2068 5.7691C12.9227 6.0532 12.4621 6.0532 12.178 5.7691Z" fill="#36106E"/>
</svg>
