<?xml version="1.0" standalone="no"?>
<!DOCTYPE svg PUBLIC "-//W3C//DTD SVG 20010904//EN"
 "http://www.w3.org/TR/2001/REC-SVG-20010904/DTD/svg10.dtd">
<svg version="1.0" xmlns="http://www.w3.org/2000/svg"
 width="872.000000pt" height="872.000000pt" viewBox="0 0 872.000000 872.000000"
 preserveAspectRatio="xMidYMid meet">
<metadata>
Created by potrace 1.14, written by Peter Selinger 2001-2017
</metadata>
<g transform="translate(0.000000,872.000000) scale(0.100000,-0.100000)"
fill="#000000" stroke="none">
<path d="M2003 7816 c-236 -58 -392 -289 -356 -526 34 -220 206 -377 432 -398
l75 -7 153 -265 153 -265 -72 -7 c-245 -25 -450 -120 -619 -288 -122 -121
-194 -234 -246 -385 -42 -125 -53 -219 -53 -470 l0 -232 -72 -7 c-312 -30
-572 -217 -684 -494 -60 -150 -59 -130 -59 -817 0 -687 -1 -667 59 -817 114
-282 383 -473 700 -495 l83 -6 23 -71 c48 -152 124 -272 249 -396 144 -143
303 -228 509 -270 101 -20 113 -20 2104 -17 l2003 2 85 23 c120 32 289 117
387 197 142 114 259 282 317 455 24 72 26 75 58 78 170 13 304 49 407 108 177
103 309 271 373 474 l23 75 0 660 0 660 -23 75 c-102 324 -370 544 -705 575
l-75 7 -5 262 c-4 241 -6 269 -31 361 -34 131 -109 279 -193 384 -163 204
-425 343 -690 367 -40 4 -73 9 -73 12 0 3 69 124 152 269 l153 263 50 0 c171
1 334 108 413 270 32 67 37 85 40 171 7 156 -35 265 -139 364 -185 177 -463
176 -650 -2 -144 -137 -183 -357 -95 -537 l34 -69 -212 -366 -212 -366 -111
-3 -111 -3 -7 78 c-32 345 -265 623 -600 715 -78 22 -94 23 -600 23 l-520 0
-90 -28 c-193 -60 -354 -178 -455 -334 -78 -119 -130 -279 -130 -403 l0 -50
-113 0 -113 0 -209 363 c-114 199 -210 365 -212 369 -2 4 8 30 22 57 92 183
65 389 -71 540 -108 119 -293 175 -451 137z m4419 -1897 c101 -39 173 -87 238
-156 70 -74 103 -128 139 -226 l26 -72 0 -1495 0 -1495 -23 -70 c-35 -103 -77
-172 -156 -250 -82 -82 -162 -127 -272 -155 -76 -20 -118 -20 -2023 -20 -2167
0 -2017 -5 -2161 71 -136 70 -238 189 -292 339 l-23 65 -3 1488 c-2 1619 -5
1532 52 1660 53 119 167 233 291 291 120 57 2 55 2155 53 l1985 -2 67 -26z"/>
<path d="M2569 3936 c-352 -124 -453 -564 -190 -827 162 -161 391 -195 595
-86 160 85 258 252 257 440 0 223 -139 412 -350 477 -92 29 -225 27 -312 -4z"/>
<path d="M5825 3946 c-122 -39 -248 -140 -304 -245 -109 -205 -64 -459 108
-614 214 -192 558 -159 733 70 213 282 79 686 -261 787 -65 19 -218 20 -276 2z"/>
<path d="M3585 3063 c-100 -52 -141 -161 -96 -258 22 -49 222 -245 304 -299
84 -55 209 -111 307 -138 73 -20 108 -23 250 -22 136 0 178 4 242 22 113 31
215 76 303 134 95 62 279 238 307 292 66 130 -29 286 -174 286 -74 0 -107 -19
-230 -137 -160 -153 -271 -203 -450 -203 -178 0 -302 55 -457 205 -58 56 -120
110 -138 119 -41 20 -128 20 -168 -1z"/>
</g>
</svg>
